<?xml version="1.0" encoding="UTF-8"?>
<!DOCTYPE svg PUBLIC "-//W3C//DTD SVG 1.1//EN" "http://www.w3.org/Graphics/SVG/1.1/DTD/svg11.dtd">
<!-- Creator: CorelDRAW 2017 -->
<svg xmlns="http://www.w3.org/2000/svg" xml:space="preserve" width="757px" height="757px" version="1.1" style="shape-rendering:geometricPrecision; text-rendering:geometricPrecision; image-rendering:optimizeQuality; fill-rule:evenodd; clip-rule:evenodd"
viewBox="0 0 1254544500 1254544500"
 xmlns:xlink="http://www.w3.org/1999/xlink">
 <defs>
  <style type="text/css">
   <![CDATA[
    .fil3 {fill:none}
    .fil0 {fill:black}
    .fil1 {fill:#E6E6E6}
    .fil2 {fill:white}
   ]]>
  </style>
 </defs>
 <rect class="fil0" x="-1628817500" y="-365313100" width="-2147483648" height="1789838700"/>
 <g id="Слой_x0020_1">
  <metadata id="CorelCorpID_0Corel-Layer"/>
  <path class="fil1" d="M646836100 83208900c4789800,1419300 6293100,3225100 3306600,6415800 -4474700,4789200 -6714000,7183800 -12597400,11554600 -5880400,4372600 -31702900,50234500 -44247700,77093600 -12548000,26860500 -14057600,37115300 -29570100,58509500 -15513200,21394100 -20198400,47526000 -32536600,53043700 0,0 -11506900,6908800 -18227200,4917600 -2239200,-663300 -3948600,-2316300 -4518600,-5544000 -2292500,-12910600 1665500,-5620300 21810700,-27171700 20144500,-21550700 31286300,-48827700 47319400,-82296900 16035500,-33471100 41960200,-90002400 59764000,-98488400 3885300,642000 7101700,1256500 9496900,1966200z"/>
  <path class="fil2" d="M543320500 305649300c0,0 -16710800,-363900 -17023400,-9630300 -310000,-9264600 -3694300,-13326600 7079900,-23892100 10775900,-10568700 55129500,-57051200 73974900,-89689200 18844900,-32639300 38992500,-95468100 45446600,-96613800 6453400,-1143700 19677900,5830900 17751200,17492500 -1928600,11661100 -20407000,27587000 -32276000,47005600 -11870200,19414200 -57367500,100724600 -74859400,118473300 -17491900,17751100 -20093800,36854000 -20093800,36854000z"/>
  <path class="fil1" d="M648383900 105696600l441600 -46907200c0,0 8960700,-17506900 13329600,-14532900 4371400,2973900 16043100,8946300 21795700,20728900 5751900,11780000 11409800,33825000 6942600,41111500 -4466000,7287700 -33769200,5545200 -42509500,-400300z"/>
  <path class="fil2" d="M657057800 40910400c0,0 7634100,6667700 13149900,4521100 5518300,-2146500 30959400,-18398800 26591700,-21738000 -4364500,-3341000 -8752800,-4481600 -13159900,-3423700 -4409000,1057900 -26581700,20640600 -26581700,20640600z"/>
  <path class="fil2" d="M693208500 15962900c0,0 5054100,8109600 9464300,6687100 4412200,-1425000 26536600,-15878400 36086800,-17986700 6635100,-4333800 -5809500,-5917300 -16831000,-3088000 -11020300,2825500 -28720100,14387600 -28720100,14387600z"/>
  <path class="fil2" d="M681863100 53237300c0,0 648900,8802300 10945100,5233900 10294900,-3566500 55146500,-18537900 55180900,-22202800 34500,-3664200 -2870000,-6624400 -6541700,-5924100 -3670500,697100 -58832000,20702600 -59584300,22893000z"/>
  <path class="fil2" d="M753872600 34125600c0,0 -3643600,-2231700 -2142800,-5885900 1500700,-3649900 28009800,-16593100 30173900,-12908200 2162800,3685600 5778800,8850600 2114600,8816100 -3664300,-34400 -30145700,9978000 -30145700,9978000z"/>
  <path class="fil2" d="M784128500 12420200c0,0 3581600,8829200 5790100,8118300 2204200,-713400 18397600,-7890900 15501900,-11582700 -2898200,-3692500 -21292000,3464400 -21292000,3464400z"/>
  <path class="fil2" d="M687583100 64512500c0,0 -1349800,8721500 9485000,7564600 10833600,-1154400 57905000,-5634800 58765600,-9195700 858100,-3564600 -1304100,-7101100 -5037200,-7248300 -3736900,-147200 -61986400,6914500 -63213400,8879400z"/>
  <path class="fil2" d="M762326000 62183000c0,0 -3421800,-3190000 -940200,-6531100 2482300,-3344100 34225200,-9875900 35701000,-5577100 1479400,4298100 4180300,10467200 221700,9512600 -3960500,-957100 -34982500,2595600 -34982500,2595600z"/>
  <path class="fil2" d="M800182900 47667000c0,0 1802700,9895300 4357600,9723100 2556200,-172300 21774300,-3420600 19505600,-7907900 -2271200,-4487900 -23863200,-1815200 -23863200,-1815200z"/>
  <path class="fil2" d="M685859300 80228600c0,0 -2603200,8432100 8283100,8863100 10890000,433400 58112300,2848700 59480900,-550000 1367300,-3400500 -256800,-7214400 -3928600,-7902800 -3675500,-690300 -62332700,-2176000 -63835400,-410300z"/>
  <path class="fil2" d="M760146200 88796000c0,0 -2921300,-3652300 22600,-6600000 2940800,-2944500 35295000,-4790400 36133700,-325000 835600,4469100 2610700,10965700 -1168100,9444300 -3777000,-1522100 -34988200,-2519300 -34988200,-2519300z"/>
  <path class="fil2" d="M799713700 79941100c0,0 345800,10052600 2897600,10253000 2552400,200400 22037400,-216100 20447700,-4986500 -1592200,-4769800 -23345300,-5266500 -23345300,-5266500z"/>
  <path class="fil2" d="M690031500 96295500c0,0 -3552700,6933300 5871000,8987700 9424200,2054500 50216300,11438700 51927500,8694000 1710600,-2749100 872500,-6318200 -2223600,-7482600 -3098000,-1165000 -53997700,-11505700 -55574900,-10199100z"/>
  <path class="fil2" d="M753476700 115204900c0,0 -1990600,-3630500 1024100,-5738200 3011600,-2111500 31492400,1271500 31544400,5287200 48800,4016200 606300,9943500 -2453500,8038700 -3063500,-1907900 -30115000,-7587700 -30115000,-7587700z"/>
  <path class="fil2" d="M789310400 113601400c0,0 -1226400,8798500 967100,9366000 2195400,570000 19243200,3212000 18580500,-1184500 -662000,-4397700 -19547600,-8181500 -19547600,-8181500z"/>
  <path class="fil2" d="M514696200 301444500c2985300,175400 6726600,-48800 12132700,-2893100 873200,-459800 1791400,-990300 2759200,-1595400 8720900,-5483800 14190300,-11659200 18147700,-13740600 3387300,-1782600 5670400,-567400 7933500,6641400 4915100,15634100 675800,64246300 9067900,89644800 8395800,25398400 64771800,151439400 69481400,157242100 4711500,5803200 18434000,3554000 15427400,16728300 0,0 3121200,8957700 -5014000,13238900 -2034500,1070400 -4771100,1847700 -8439100,2120800 0,0 -1178800,1975600 -3176900,4630800 -2886300,3830800 -7479400,9076600 -12702700,11824500 -1733800,912000 -4142800,1761900 -6563700,1827100l700 600 -220500 3800 -2500 600 -111500 0 -6900 0c-2267400,-6900 -4620100,-773600 -6883100,-2474800l0 0c-18200,9400 -18200,9400 -35100,18200 -40100,-77100 -40100,-77100 -40100,-77100 0,0 -18200,9400 -18200,9400 0,0 0,0 0,0 -57000,-67600 -57000,-67600 -74500,-58200 -2492300,-1922300 -4586200,-3760100 -6231100,-5540200 -1470700,-1577800 -2619400,-3129300 -3467500,-4741600 -3449400,-6514200 -1664300,-13626600 3677400,-26333600 6848600,-19086600 -36765800,-145474600 -61529800,-193297000 -242400,-461000 -444100,-844300 -645800,-1228300 -4118300,-7828300 -7689900,-13396100 -10331900,-15729900 -1471300,-1283400 -2925700,-2575600 -4316200,-3706200 -16444000,-13689800 -27662200,-18076900 -20630600,-27949700 496700,-653300 982100,-1202600 1414300,-1723700 1683000,-1860300 3490700,-3107400 6129000,-3147500l600 -1300c1501400,-50700 3614800,268100 4269900,306900zm94489100 256913800c405300,-1301000 897000,-2625700 1484500,-3971800 2694600,-6169100 3721900,-12965100 3708700,-19824500 9400,6846200 -1023500,13629100 -3719300,19784400 -589500,1360500 -1077400,2698400 -1473900,4011900zm-2922000 -62783100c-720900,-2050100 -1384900,-3879700 -1940500,-5435600 -900700,-2527400 -3875300,-10316900 -8113300,-21164300 4241200,10856800 7215100,18656900 8117700,21188100 554400,1550900 1217700,3371100 1936100,5411800z"/>
  <path class="fil1" d="M510467000 301137600c2980300,14404500 19620300,29265100 26221500,32357400 8482900,4062000 63203400,144205000 67638700,156668400 4452200,12454000 15923500,42282800 6332000,64183000 -6207300,14338800 -1183900,26198400 3091100,32768300 -2372100,72000 -4847500,-683400 -7225200,-2470400l0 0c-16900,9400 -16900,9400 -34400,18200 -40100,-76400 -40100,-76400 -40100,-76400 0,0 -17500,8700 -17500,8700 0,0 0,0 0,0 -57700,-67600 -57700,-67600 -75200,-58200 -2492300,-1922300 -4586900,-3760100 -6231100,-5540800 -1471300,-1577200 -2619400,-3129400 -3467500,-4741000 -3449400,-6514200 -1664300,-13626600 3677400,-26333600 6848600,-19086000 -36766400,-145474600 -61529800,-193297600 -241800,-460400 -444100,-843700 -645800,-1227700 -4118300,-7827700 -7689200,-13396100 -10331900,-15729300 -1471300,-1284000 -2925700,-2576800 -4316200,-3706800 -16444000,-13689800 -27661600,-18076900 -20630000,-27949700 496100,-653300 981500,-1202000 1414300,-1723700 1691200,-1869700 3509500,-3120600 6169700,-3148800z"/>
  <path class="fil1" d="M1108226800 372183100c1165700,4858100 353900,7062900 -3902900,6072000 -6384500,-1481400 -9579000,-2223000 -16305500,-5132400 -6727200,-2906400 -59355600,-2338900 -88888800,226700 -29535600,2563700 -39171600,6383900 -65455800,3646700 -26284100,-2737800 -51257300,6270500 -62204900,-1655500 0,0 -11737500,-6511100 -13372900,-13326500 -545000,-2271200 31900,-4578100 2542400,-6685200 10035000,-8440900 5699900,-1368000 34436300,5302200 28735800,6670700 57929400,2680800 94930700,-168500 37005000,-2848100 98925000,-8662000 115176000,2512900 1386200,3686200 2462900,6779200 3045400,9207600z"/>
  <path class="fil2" d="M863829700 393756400c0,0 -8040000,-14653800 -171600,-19557700 7869000,-4900600 9694300,-9862700 24231600,-5814500 14540400,4048200 76972700,19217500 114660500,19219400 37688400,600 102174000,-13966100 106393800,-8948900 4216100,5016600 4788600,19956600 -6273700,24118800 -11062800,4160400 -34094900,-3879700 -56846400,-4448400 -22748300,-573100 -115913900,680200 -140030800,-5594100 -24118900,-6273000 -41963400,1025400 -41963400,1025400z"/>
  <path class="fil1" d="M1089526000 384767400l40843400 -23070900c0,0 19642200,-992800 19250800,4277400 -389600,5272800 273700,18367000 -7054200,29240000 -7325300,10871900 -23587600,26794100 -32131900,26567900 -8544200,-223600 -21687300,-26472000 -20908100,-37014400z"/>
  <path class="fil2" d="M1149969000 359886900c0,0 -1956700,9944800 2659600,13647900 4618200,3706200 31414100,17612800 32121900,12160900 710900,-5450600 -495500,-9821400 -3614800,-13109200 -3120500,-3289700 -31166700,-12699600 -31166700,-12699600z"/>
  <path class="fil2" d="M1189649300 378719900c0,0 -4495400,8431500 -1058600,11539500 3440600,3109300 27019500,15042800 33620800,22259100 7070400,3579700 2219200,-7989900 -5741300,-16120100 -7957300,-8130900 -26820900,-17678500 -26820900,-17678500z"/>
  <path class="fil2" d="M1151696600 387531600c0,0 -7298500,4963300 939500,12095700 8236700,7132400 43628200,38489500 46818900,36687500 3190700,-1802700 4301900,-5798300 1859700,-8627600 -2439100,-2830500 -47345100,-40599100 -49618100,-40155600z"/>
  <path class="fil2" d="M1204252400 440337900c0,0 111400,-4271200 4026200,-4798600 3911100,-524900 28375000,15961100 26265400,19677300 -2110200,3715600 -4775400,9429900 -6577500,6239200 -1802000,-3190100 -23714100,-21117900 -23714100,-21117900z"/>
  <path class="fil2" d="M1238178200 455687600c0,0 -5855900,7517000 -4135900,9073500 1720000,1552200 16032400,11987400 17781900,7633600 1748200,-4355800 -13646000,-16707100 -13646000,-16707100z"/>
  <path class="fil2" d="M1144791500 398123400c0,0 -8227300,3192000 -1808300,11996100 6416500,8804900 33832500,47329500 37346400,46294700 3515800,-1039100 5497600,-4679600 3758800,-7986800 -1741300,-3309100 -36981200,-50224500 -39296900,-50304000z"/>
  <path class="fil2" d="M1184181100 461687600c0,0 1051700,-4558700 5185700,-4079500 4137100,477200 25665300,24701300 22680700,28129400 -2982800,3430000 -6974600,8853700 -8127700,4948300 -1151900,-3908500 -19738700,-28998200 -19738700,-28998200z"/>
  <path class="fil2" d="M1215680400 487214500c0,0 -7668600,6509100 -6241700,8635700 1427400,2127700 13849500,17146700 16601800,12938200 2751000,-4211100 -10360100,-21573900 -10360100,-21573900z"/>
  <path class="fil2" d="M1130319300 404488500c0,0 -8603700,1961800 -3533900,11604700 5069800,9647300 26588600,51750900 30217100,51237300 3627900,-516100 6119000,-3830200 4878800,-7354200 -1239600,-3527600 -29280700,-55069400 -31562000,-55487800z"/>
  <path class="fil2" d="M1160043500 473106200c0,0 1702500,-4356400 5726900,-3280300 4020600,1074300 21796200,28171400 18348100,31130400 -3452600,2958300 -8191000,7744400 -8762900,3709900 -570600,-4031200 -15312100,-31560000 -15312100,-31560000z"/>
  <path class="fil2" d="M1187495800 502945600c0,0 -8532900,5325400 -7431200,7635400 1103100,2311300 11206300,18977600 14542400,15215700 3335400,-3764500 -7111200,-22851100 -7111200,-22851100z"/>
  <path class="fil2" d="M1118491700 416135200c0,0 -7781400,389600 -4848700,9578300 2933300,9188800 15201900,49207900 18434500,49316900 3236500,107100 5907900,-2402700 5368600,-5666700 -539900,-3265300 -17034600,-52515700 -18954400,-53228500z"/>
  <path class="fil2" d="M1133837600 480534900c0,0 2149100,-3539000 5482000,-1982400 3334100,1552700 14644400,27908900 11193100,29962100 -3453800,2050100 -8308100,5497000 -8188500,1894200 120300,-3606600 -8486600,-29873900 -8486600,-29873900z"/>
  <path class="fil2" d="M1153143500 510766400c0,0 -8233000,3337300 -7627900,5520200 603800,2186000 6839900,18271100 10316200,15498800 3477600,-2771700 -2688300,-21019000 -2688300,-21019000z"/>
  <path class="fil2" d="M853159600 366864600c1340400,2673400 3404900,5800800 8571800,9060400 834300,526800 1753200,1056700 2761000,1592200 9109900,4811100 17192500,6459700 20973900,8846200 3237000,2041900 3326000,4626900 -1785200,10191000 -11082300,12073800 -55300500,32708700 -73100600,52676000 -17798100,19969800 -98764600,131812900 -101434800,138793200 -2670200,6982100 6139000,17741100 -6774100,21724800 0,0 -6196700,7181900 -13971700,2276900 -1944300,-1226500 -3985600,-3207700 -6056400,-6248000 0,0 -2300600,-33200 -5598400,-436000 -4761000,-583800 -11600900,-1938600 -16592400,-5088000 -1656200,-1045400 -3596600,-2707100 -4863800,-4771000l-600 600 -113400 -189100 -1800 -1900 -55800 -96500 -3100 -5600c-1127500,-1967400 -1639900,-4387700 -1298500,-7198200l0 0c-16900,-11300 -16900,-11300 -33200,-21300 46400,-73300 46400,-73300 46400,-73300 0,0 -16900,-11200 -16900,-11200 0,0 0,0 0,0 30000,-82700 30000,-82700 13100,-94000 418400,-3119300 962700,-5851500 1683100,-8165900 630700,-2063300 1399900,-3833400 2372000,-5374200 3916700,-6244300 10968900,-8254300 24644300,-9981800 19953500,-3612200 107602100,-104577300 136635400,-149934900 277400,-440400 509200,-806800 740300,-1173200 4720300,-7481300 7756900,-13357900 8456600,-16812900 375800,-1916000 767900,-3821400 1051700,-5590900 3633500,-21086000 1823900,-32994400 13889600,-31841300 814300,103300 1532700,249300 2200400,362700 2452200,527400 4436600,1469400 5790100,3734300l1300 -600c794900,1275300 1575900,3264600 1869700,3851500zm-175249500 210287100c1329200,-299400 2722200,-536100 4182300,-700200 6689500,-751700 13088500,-3259600 19022700,-6700300 -5924200,3430600 -12315000,5928000 -18993900,6670800 -1472600,169800 -2875700,416600 -4211100,729700zm52910300 -33922000c1415600,-1649900 2667700,-3139400 3737600,-4398400 1738100,-2043800 6997100,-8514800 14272300,-17609000 -7281500,9101700 -12549800,15577700 -14290500,17624700 -1066100,1255200 -2311300,2739700 -3719400,4382700z"/>
  <path class="fil1" d="M851310600 363048800c-10984600,9783200 -15534500,31624000 -14911300,38887300 722800,9376700 -93283900,126838300 -101860100,136910300 -8559300,10083200 -28656200,34931700 -52418000,37575600 -15521400,1793900 -23280200,12073800 -26832300,19060900 -1248300,-2018100 -1832100,-4539800 -1473200,-7491900l0 0c-16900,-10700 -16900,-10700 -33200,-20700 46400,-73300 46400,-73300 46400,-73300 0,0 -16900,-10600 -16900,-10600 0,0 0,0 0,0 30000,-83900 30000,-83900 13100,-94000 418400,-3119900 962700,-5852700 1683100,-8167100 630700,-2062700 1400500,-3832800 2372000,-5373000 3916700,-6244900 10968900,-8254900 24644300,-9983000 19953500,-3611000 107601500,-104577300 136635400,-149934300 278100,-439700 509200,-806800 740300,-1173200 4720300,-7480700 7756900,-13357900 8456600,-16812900 375800,-1916000 768500,-3821400 1052300,-5590900 3633500,-21086000 1823300,-32994400 13889600,-31841300 813700,103300 1532100,248700 2200400,363300 2464800,529300 4456600,1478800 5811500,3768800z"/>
  <path class="fil1" d="M1088662900 916246500c-3624100,3438700 -5939200,3837700 -7209500,-343900 -1909700,-6269900 -2864300,-9406800 -3708000,-16687600 -846300,-7278400 -27652200,-52572700 -44640500,-76866300 -16988200,-24296700 -25114700,-30731400 -35886300,-54862700 -10771000,-24132000 -31059600,-41255600 -29668400,-54699200 0,0 -230500,-13419900 4854300,-18244200 1694300,-1607900 3980600,-2261800 7060400,-1141200 12327500,4470300 4035000,4252400 12626300,32473900 8591200,28220900 26643000,51509100 47611900,82128400 20968800,30623000 56964100,81340400 55411400,101001400 -2499200,3043500 -4639500,5522600 -6451600,7241400z"/>
  <path class="fil2" d="M947782100 715379300c0,0 8670100,-14289900 16851100,-9927300 8178400,4363900 13388600,3463200 17151100,18077500 3765100,14616300 21843300,76268800 40686200,108908700 18844200,32639200 63181500,81502000 60946600,87664800 -2236100,6160300 -14888700,14125800 -24024200,6626300 -9134300,-7500100 -13688000,-31466700 -24570500,-51454000 -10878100,-19987900 -58546300,-100044900 -65170800,-124067300 -6627500,-24024200 -21869500,-35828700 -21869500,-35828700z"/>
  <path class="fil1" d="M1068414400 906343000l40401800 23836300c0,0 10680800,16514200 5921000,18810400 -4761000,2298800 -15769300,9420600 -28849700,8510400 -13077900,-908200 -34998200,-7030300 -39074600,-14542900 -4078200,-7510700 12082600,-32017300 21601500,-36614200z"/>
  <path class="fil2" d="M1120183500 946248100c0,0 -9590900,3277800 -10489700,9127400 -900800,5852800 454100,36011600 5529500,33898300 5075400,-2109000 8257400,-5339800 9544600,-9684900 1289000,-4347000 -4584400,-33340800 -4584400,-33340800z"/>
  <path class="fil2" d="M1123713700 990029200c0,0 -9550200,321900 -10523000,4853100 -972700,4533600 482300,30920500 -2466600,40245200 435300,7913500 8029400,-2072700 11089800,-13031600 3062900,-10957000 1899800,-32066700 1899800,-32066700z"/>
  <path class="fil2" d="M1097105700 961566500c0,0 -7947300,-3839000 -10005600,6861800 -2058200,10699600 -11518200,57027500 -8361900,58889700 3156200,1862100 7171800,826800 8400800,-2703400 1232000,-3527100 11487500,-61301200 9966700,-63048100z"/>
  <path class="fil2" d="M1077652000 1033484500c0,0 3755100,-2039400 6169100,1087400 2410300,3124300 364600,32554100 -3908500,32584800 -4273100,30700 -10554300,580000 -8692100,-2576300 1861600,-3155600 6431500,-31095900 6431500,-31095900z"/>
  <path class="fil2" d="M1081321900 1070539700c0,0 -9437400,-1312900 -9926000,955200 -484200,2265500 -2365200,19878300 2280000,19216200 4647000,-663300 7646000,-20171400 7646000,-20171400z"/>
  <path class="fil2" d="M1084480700 960883100c0,0 -6878100,-5530100 -11293400,4431600 -4417100,9959200 -24072500,52964800 -21419200,55490300 2658300,2524900 6801700,2420900 8796100,-738500 1995600,-3162500 25005100,-57138900 23916500,-59183400z"/>
  <path class="fil2" d="M1049127400 1026776800c0,0 4473500,-1368600 6125800,2451600 1655500,3821400 -8559900,34577200 -13020200,33705900 -4462300,-867500 -11155600,-1612900 -8349500,-4563700 2809300,-2952000 15243900,-31593800 15243900,-31593800z"/>
  <path class="fil2" d="M1042769800 1066819700c0,0 -9471300,-3386800 -10599400,-1087400 -1128700,2299400 -7924800,20566700 -2904500,20846100 5022900,277400 13503900,-19758700 13503900,-19758700z"/>
  <path class="fil2" d="M1071732300 951531500c0,0 -6001200,-6469700 -11817000,2742200 -5820200,9213900 -31523100,48902300 -29263800,51787300 2260500,2883800 6376400,3384200 8807900,548700 2435300,-2837400 33050800,-52893400 32272900,-55078200z"/>
  <path class="fil2" d="M1027169500 1011582400c0,0 4623800,-703400 5704300,3319700 1079900,4018800 -13498800,32961900 -17785600,31454800 -4288100,-1510700 -10802300,-3221300 -7594700,-5733700 3206400,-2509800 19676000,-29040800 19676000,-29040800z"/>
  <path class="fil2" d="M1015054300 1050276700c0,0 -8878700,-4727100 -10328100,-2617500 -1450000,2110200 -10831700,19193700 -5906000,20201500 4927600,1005900 16234100,-17584000 16234100,-17584000z"/>
  <path class="fil2" d="M1055732400 947111900c0,0 -4228600,-6543700 -10719600,590000 -6491100,7134900 -35014500,37769800 -33492400,40624200 1525200,2855600 5034700,3914100 7591500,1815200 2558100,-2100200 36962500,-41010000 36620500,-43029400z"/>
  <path class="fil2" d="M1007633800 992602300c0,0 4139000,91400 4457200,3756300 322600,3663600 -16847300,26636800 -20351200,24674400 -3502700,-1966200 -8914500,-4446600 -5735000,-6144600 3183800,-1699400 21629000,-22286100 21629000,-22286100z"/>
  <path class="fil2" d="M991105300 1024437300c0,0 -7007200,-5461900 -8595000,-3846500 -1591000,1616600 -12403300,15059700 -8264300,16683900 4139700,1626000 16859300,-12837400 16859300,-12837400z"/>
  <path class="fil2" d="M965735600 692693000c-1644800,2497300 -3321600,5849000 -3560900,11953500 -38800,985900 -38200,2046300 1900,3187000 388300,10294300 3002200,18118800 2825500,22586700 -149100,3824600 -2343800,5193800 -9718000,3549600 -15997400,-3560300 -55976400,-31537500 -82169100,-36968700 -26193400,-5428700 -163535900,-19625900 -170915700,-18449000 -7381700,1178900 -12294900,14187800 -22200900,4995900 0,0 -9318400,-1775100 -8958300,-10961400 90200,-2296800 784900,-5055400 2382700,-8368800 0,0 -1121200,-2008800 -2421500,-5066700 -1874700,-4414600 -4120900,-11015300 -3889700,-16913100 77600,-1956800 546200,-4468500 1699900,-6597500l-1200 0 107100 -192900 1200 -2500 55200 -96500 3700 -5600c1140000,-1959900 2980300,-3614200 5584700,-4724100l0 0c600,-20000 600,-20000 1900,-38800 86400,3100 86400,3100 86400,3100 0,0 1300,-20000 1300,-20000 0,0 0,0 0,0 87000,-15700 87000,-15700 87700,-35100 2911300,-1197600 5549500,-2092700 7913400,-2626400 2102100,-485400 4020100,-704000 5840300,-632600 7366000,270000 12633100,5372300 20966900,16351900 13104800,15474400 144367800,40897300 198165100,43362000 519900,20700 953300,37600 1386100,54500 8839300,347600 15446200,38800 18788500,-1082400 1847800,-632600 3693700,-1245800 5367900,-1884700 20078200,-7396100 29486200,-14917500 34520300,-3891600 317500,756000 550600,1451300 786100,2086400 769100,2387700 945800,4576900 -338900,6881900l1300 600c-707200,1326000 -2039500,2996600 -2400900,3545300zm-269738600 -46627300c923900,1001600 1825300,2089600 2697200,3271500 3995500,5418100 9367300,9705500 15314600,13124200 -5933600,-3415500 -11291500,-7701100 -15274500,-13113500 -883200,-1190800 -1798300,-2282500 -2737300,-3282200zm55833000 28860400c2135900,401500 4051900,741000 5677400,1037900 2638800,482900 10872400,1802700 22385600,3555200 -11523200,-1755000 -19765600,-3079200 -22408200,-3563300 -1620400,-295700 -3528900,-631400 -5654800,-1029800z"/>
  <path class="fil1" d="M968115200 689183400c-13964200,-4621300 -35154200,2358900 -41132800,6529900 -7758800,5314700 -156486700,-17367200 -169497600,-19758100 -13011500,-2370800 -44579700,-7351000 -58750500,-26607300 -9314100,-12545500 -22096300,-14124600 -29923400,-13707400 1123700,-2090200 3015300,-3856600 5751300,-5021600l0 0c1200,-19400 1200,-19400 1900,-39500 86400,3800 86400,3800 86400,3800 0,0 600,-19400 600,-19400 0,0 0,0 0,0 87700,-16300 87700,-16300 88400,-35700 2911300,-1197600 5549500,-2092700 7914100,-2626400 2102100,-485400 4019400,-704000 5839600,-632000 7366000,269400 12633100,5371700 20966900,16351300 13104800,15474400 144367800,40896600 198165100,43362600 519900,20100 953300,37000 1386100,54500 8838700,347000 15446800,38900 18788500,-1083000 1847800,-632600 3694300,-1245200 5367900,-1884700 20078200,-7396100 29486200,-14917500 34520300,-3891600 317500,756700 550600,1451300 786100,2087100 773500,2399600 947700,4599400 -358900,6917500z"/>
  <path class="fil1" d="M607708300 1171335600c-4789800,-1419300 -6293000,-3225100 -3306500,-6415900 4474700,-4789100 6714000,-7183700 12597400,-11554500 5880300,-4372700 31702900,-50234500 44247700,-77093700 12548000,-26860400 14057500,-37115200 29570100,-58509400 15513200,-21394100 20198400,-47526100 32536500,-53043700 0,0 11507000,-6908800 18227300,-4917600 2239200,663300 3948600,2316300 4518600,5543900 2292500,12910700 -1665500,5620400 -21810700,27171800 -20144500,21550700 -31286300,48827600 -47319400,82296800 -16035600,33471100 -41960200,90002500 -59764000,98488500 -3885300,-642100 -7101700,-1256500 -9497000,-1966200z"/>
  <path class="fil2" d="M711224000 948895100c0,0 16710800,364000 17023300,9630400 310100,9264600 3694300,13326600 -7079800,23892100 -10776000,10568600 -55129500,57051200 -73975000,89689200 -18844800,32639300 -38992500,95468100 -45446500,96613700 -6453500,1143800 -19677900,-5830800 -17751200,-17492500 1928600,-11661000 20407000,-27587000 32276000,-47005500 11870200,-19414200 57367500,-100724600 74859400,-118473300 17491900,-17751200 20093800,-36854100 20093800,-36854100z"/>
  <path class="fil1" d="M606160600 1148847800l-441600 46907300c0,0 -8960800,17506900 -13329700,14532900 -4371400,-2974000 -16043100,-8946400 -21795600,-20728900 -5751900,-11780100 -11409900,-33825000 -6942600,-41111500 4466000,-7287800 33769200,-5545200 42509500,400200z"/>
  <path class="fil2" d="M597486700 1213634100c0,0 -7634100,-6667700 -13149900,-4521100 -5518300,2146500 -30959400,18398800 -26591700,21738000 4364500,3341000 8752800,4481600 13159900,3423700 4409000,-1058000 26581700,-20640600 26581700,-20640600z"/>
  <path class="fil2" d="M561336000 1238581600c0,0 -5054100,-8109600 -9464400,-6687100 -4412100,1425000 -26536600,15878300 -36086700,17986700 -6635100,4333800 5809500,5917300 16831000,3088000 11020300,-2825600 28720100,-14387600 28720100,-14387600z"/>
  <path class="fil2" d="M572681400 1201307200c0,0 -648900,-8802300 -10945100,-5233900 -10295000,3566500 -55146500,18537900 -55180900,22202700 -34500,3664300 2870000,6624500 6541700,5924200 3670500,-697100 58832000,-20702600 59584300,-22893000z"/>
  <path class="fil2" d="M500671900 1220418800c0,0 3643600,2231800 2142800,5886000 -1500800,3649800 -28009800,16593000 -30173900,12908100 -2162800,-3685500 -5778800,-8850500 -2114600,-8816100 3664200,34500 30145700,-9978000 30145700,-9978000z"/>
  <path class="fil2" d="M470416000 1242124300c0,0 -3581600,-8829300 -5790200,-8118300 -2204100,713400 -18397600,7890900 -15501900,11582700 2898200,3692400 21292100,-3464400 21292100,-3464400z"/>
  <path class="fil2" d="M566961400 1190032000c0,0 1349800,-8721500 -9485000,-7564600 -10833700,1154400 -57905000,5634800 -58765600,9195600 -858200,3564700 1304100,7101100 5037200,7248300 3736900,147200 61986400,-6914400 63213400,-8879300z"/>
  <path class="fil2" d="M492218500 1192361400c0,0 3421800,3190100 940200,6531100 -2482300,3344200 -34225300,9876000 -35701000,5577200 -1479400,-4298100 -4180300,-10467200 -221700,-9512600 3960500,957100 34982500,-2595700 34982500,-2595700z"/>
  <path class="fil2" d="M454361600 1206877500c0,0 -1802700,-9895400 -4357600,-9723100 -2556200,172200 -21774400,3420600 -19505700,7907800 2271200,4488000 23863300,1815300 23863300,1815300z"/>
  <path class="fil2" d="M568685200 1174315900c0,0 2603100,-8432200 -8283100,-8863100 -10890000,-433500 -58112300,-2848700 -59480900,549900 -1367300,3400600 256800,7214500 3928600,7902900 3675500,690200 62332700,2176000 63835400,410300z"/>
  <path class="fil2" d="M494398200 1165748400c0,0 2921400,3652400 -22500,6600000 -2940800,2944600 -35295100,4790500 -36133800,325100 -835500,-4469100 -2610700,-10965800 1168200,-9444300 3777000,1522100 34988100,2519200 34988100,2519200z"/>
  <path class="fil2" d="M454830700 1174603400c0,0 -345700,-10052600 -2897500,-10253000 -2552500,-200500 -22037400,216100 -20447700,4986500 1592200,4769700 23345200,5266500 23345200,5266500z"/>
  <path class="fil2" d="M564512900 1158249000c0,0 3552800,-6933300 -5870900,-8987800 -9424300,-2054400 -50216300,-11438600 -51927500,-8693900 -1710600,2749100 -872600,6318100 2223600,7482600 3098000,1165000 53997700,11505700 55574800,10199100z"/>
  <path class="fil2" d="M501067800 1139339600c0,0 1990600,3630400 -1024100,5738200 -3011600,2111400 -31492400,-1271600 -31544400,-5287200 -48900,-4016300 -606300,-9943500 2453500,-8038800 3063500,1907900 30115000,7587800 30115000,7587800z"/>
  <path class="fil2" d="M465234100 1140943100c0,0 1226400,-8798500 -967200,-9366000 -2195400,-570000 -19243200,-3212000 -18580500,1184400 662100,4397700 19547700,8181600 19547700,8181600z"/>
  <path class="fil2" d="M739848200 953099900c-2985200,-175400 -6726500,48900 -12132700,2893200 -873100,459800 -1791400,990300 -2759100,1595400 -8720900,5483800 -14190300,11659100 -18147700,13740500 -3387400,1782700 -5670500,567500 -7933500,-6641300 -4915100,-15634100 -675900,-64246300 -9067900,-89644800 -8395800,-25398500 -64771800,-151439400 -69481500,-157242100 -4711500,-5803300 -18433900,-3554000 -15427300,-16728300 0,0 -3121200,-8957700 5014000,-13238900 2034500,-1070400 4771000,-1847800 8439000,-2120900 0,0 1178900,-1975500 3177000,-4630700 2886300,-3830800 7479400,-9076600 12702700,-11824500 1733700,-912000 4142700,-1762000 6563600,-1827100l-600 -600 220500 -3800 2500 -600 111500 0 6900 0c2267400,6900 4620100,773500 6883100,2474800l0 0c18200,-9400 18200,-9400 35100,-18200 40100,77000 40100,77000 40100,77000 0,0 18100,-9400 18100,-9400 0,0 0,0 0,0 57000,67700 57000,67700 74600,58300 2492300,1922300 4586200,3760100 6231100,5540200 1470700,1577800 2619400,3129300 3467500,4741600 3449400,6514200 1664300,13626500 -3677400,26333600 -6848700,19086600 36765800,145474600 61529800,193297000 242400,461000 444100,844300 645700,1228300 4118400,7828300 7689900,13396000 10331900,15729900 1471400,1283400 2925800,2575600 4316300,3706200 16444000,13689800 27662200,18076900 20630600,27949700 -496700,653300 -982100,1202600 -1414300,1723700 -1683100,1860300 -3490800,3107400 -6129000,3147500l-600 1200c-1501400,50800 -3614800,-268000 -4270000,-306900zm-94489000 -256913700c-405300,1301000 -897000,2625700 -1484500,3971800 -2694600,6169100 -3721900,12965100 -3708700,19824400 -9400,-6846100 1023400,-13629000 3719300,-19784300 589400,-1360500 1077400,-2698400 1473900,-4011900zm2922000 62783100c720900,2050100 1384800,3879700 1940400,5435600 900700,2527400 3875400,10316900 8113300,21164200 -4241100,-10856700 -7215100,-18656900 -8117600,-21188000 -554400,-1550900 -1217700,-3371100 -1936100,-5411800z"/>
  <path class="fil1" d="M744077500 953406800c-2980300,-14404500 -19620300,-29265000 -26221600,-32357400 -8482800,-4061900 -63203400,-144204900 -67638600,-156668300 -4452300,-12454000 -15923500,-42282800 -6332000,-64183000 6207300,-14338800 1183900,-26198400 -3091100,-32768300 2372100,-72100 4847500,683300 7225100,2470400l0 0c16900,-9400 16900,-9400 34500,-18200 40100,76400 40100,76400 40100,76400 0,0 17500,-8800 17500,-8800 0,0 0,0 0,0 57600,67700 57600,67700 75200,58300 2492300,1922300 4586800,3760100 6231100,5540800 1471300,1577200 2619400,3129300 3467500,4741000 3449400,6514200 1664300,13626500 -3677400,26333600 -6848700,19086000 36766400,145474600 61529800,193297600 241700,460400 444100,843700 645700,1227700 4118400,7827700 7689300,13396000 10331900,15729300 1471400,1284000 2925800,2576800 4316300,3706800 16444000,13689800 27661600,18076900 20630000,27949700 -496100,653300 -981500,1201900 -1414300,1723700 -1691200,1869700 -3509600,3120600 -6169700,3148700z"/>
  <path class="fil1" d="M146317700 882361400c-1165700,-4858100 -353900,-7062900 3902900,-6072000 6384500,1481300 9579000,2223000 16305500,5132400 6727200,2906400 59355600,2338900 88888700,-226700 29535700,-2563700 39171700,-6383900 65455800,-3646700 26284200,2737800 51257400,-6270600 62205000,1655500 0,0 11737500,6511000 13372900,13326500 544900,2271200 -31900,4578100 -2542400,6685200 -10035000,8440900 -5699900,1368000 -34436300,-5302200 -28735800,-6670800 -57929400,-2680800 -94930700,168500 -37005000,2848100 -98925000,8662000 -115176000,-2513000 -1386200,-3686100 -2462900,-6779100 -3045400,-9207500z"/>
  <path class="fil2" d="M390714700 860788100c0,0 8040100,14653800 171700,19557600 -7869100,4900700 -9694300,9862800 -24231600,5814600 -14540400,-4048200 -76972800,-19217500 -114660500,-19219400 -37688400,-600 -102174000,13966000 -106393800,8948900 -4216100,-5016600 -4788600,-19956700 6273700,-24118900 11062800,-4160300 34094900,3879700 56846400,4448500 22748300,573100 115913900,-680200 140030800,5594100 24118800,6273000 41963300,-1025400 41963300,-1025400z"/>
  <path class="fil1" d="M165018400 869777100l-40843400 23070900c0,0 -19642200,992800 -19250700,-4277500 389600,-5272700 -273700,-18366900 7054100,-29240000 7325400,-10871800 23587700,-26794000 32132000,-26567900 8544200,223600 21687200,26472100 20908000,37014500z"/>
  <path class="fil2" d="M104575400 894657500c0,0 1956800,-9944800 -2659500,-13647800 -4618200,-3706200 -31414100,-17612800 -32121900,-12160900 -710900,5450600 495500,9821400 3614800,13109200 3120500,3289700 31166600,12699500 31166600,12699500z"/>
  <path class="fil2" d="M64895200 875824600c0,0 4495400,-8431500 1058600,-11539500 -3440700,-3109300 -27019600,-15042800 -33620800,-22259100 -7070400,-3579700 -2219200,7989900 5741200,16120100 7957400,8130800 26821000,17678500 26821000,17678500z"/>
  <path class="fil2" d="M102847900 867012900c0,0 7298400,-4963300 -939500,-12095700 -8236700,-7132400 -43628200,-38489500 -46818900,-36687500 -3190800,1802700 -4301900,5798300 -1859700,8627600 2439000,2830500 47345000,40599100 49618100,40155600z"/>
  <path class="fil2" d="M50292100 814206600c0,0 -111500,4271200 -4026300,4798500 -3911000,524900 -28374900,-15961000 -26265300,-19677200 2110200,-3715600 4775400,-9429900 6577400,-6239200 1802100,3190000 23714200,21117900 23714200,21117900z"/>
  <path class="fil2" d="M16366300 798856900c0,0 5855900,-7517100 4135900,-9073600 -1720000,-1552100 -16032500,-11987300 -17781900,-7633500 -1748200,4355800 13646000,16707100 13646000,16707100z"/>
  <path class="fil2" d="M109753000 856421100c0,0 8227300,-3192000 1808300,-11996200 -6416500,-8804800 -33832500,-47329400 -37346400,-46294600 -3515800,1039100 -5497600,4679500 -3758800,7986800 1741300,3309000 36981200,50224400 39296900,50304000z"/>
  <path class="fil2" d="M70363400 792856900c0,0 -1051700,4558700 -5185700,4079500 -4137200,-477300 -25665300,-24701300 -22680700,-28129400 2982800,-3430000 6974600,-8853700 8127700,-4948300 1151900,3908500 19738700,28998200 19738700,28998200z"/>
  <path class="fil2" d="M38864100 767330000c0,0 7668600,-6509200 6241700,-8635700 -1427500,-2127700 -13849500,-17146700 -16601800,-12938200 -2751000,4211100 10360100,21573900 10360100,21573900z"/>
  <path class="fil2" d="M124225100 850056000c0,0 8603800,-1961800 3534000,-11604700 -5069800,-9647300 -26588600,-51750900 -30217100,-51237300 -3627900,516100 -6119000,3830200 -4878800,7354100 1239600,3527700 29280700,55069400 31561900,55487900z"/>
  <path class="fil2" d="M94501000 781438300c0,0 -1702500,4356300 -5726900,3280200 -4020600,-1074200 -21796200,-28171400 -18348100,-31130300 3452500,-2958300 8191000,-7744400 8762900,-3710000 570600,4031300 15312100,31560100 15312100,31560100z"/>
  <path class="fil2" d="M67048600 751598900c0,0 8533000,-5325400 7431200,-7635400 -1103000,-2311300 -11206300,-18977700 -14542300,-15215700 -3335400,3764500 7111100,22851100 7111100,22851100z"/>
  <path class="fil2" d="M136052800 838409300c0,0 7781300,-389600 4848700,-9578400 -2933300,-9188700 -15201900,-49207800 -18434600,-49316800 -3236400,-107100 -5907800,2402700 -5368500,5666700 539900,3265200 17034600,52515700 18954400,53228500z"/>
  <path class="fil2" d="M120706800 774009600c0,0 -2149000,3538900 -5481900,1982400 -3334100,-1552700 -14644400,-27908900 -11193100,-29962200 3453700,-2050100 8308100,-5496900 8188400,-1894100 -120200,3606600 8486600,29873900 8486600,29873900z"/>
  <path class="fil2" d="M101401000 743778100c0,0 8233000,-3337300 7627900,-5520200 -603800,-2186000 -6839900,-18271100 -10316200,-15498800 -3477600,2771700 2688300,21019000 2688300,21019000z"/>
  <path class="fil2" d="M401384900 887679800c-1340400,-2673300 -3404900,-5800700 -8571800,-9060300 -834300,-526800 -1753200,-1056700 -2761000,-1592300 -9109900,-4811100 -17192500,-6459700 -20973900,-8846100 -3237000,-2042000 -3326000,-4627000 1785200,-10191000 11082200,-12073800 55300500,-32708800 73100500,-52676000 17798200,-19969800 98764700,-131813000 101434900,-138793200 2670200,-6982100 -6139000,-17741200 6774100,-21724800 0,0 6196700,-7181900 13971700,-2276900 1944300,1226400 3985600,3207600 6056400,6248000 0,0 2300600,33200 5598400,436000 4761000,583700 11600900,1938600 16592400,5087900 1656100,1045400 3596600,2707200 4863700,4771100l700 -700 113300 189200 1900 1900 55800 96400 3100 5700c1127500,1967400 1639800,4387700 1298500,7198200l0 0c16900,11200 16900,11200 33200,21300 -46400,73200 -46400,73200 -46400,73200 0,0 16900,11300 16900,11300 0,0 0,0 0,0 -30000,82700 -30000,82700 -13100,94000 -418500,3119300 -962800,5851500 -1683100,8165900 -630700,2063200 -1399900,3833300 -2372000,5374200 -3916700,6244200 -10968900,8254200 -24644400,9981800 -19953500,3612200 -107602000,104577300 -136635300,149934900 -277500,440300 -509200,806800 -740300,1173200 -4720300,7481300 -7757000,13357800 -8456600,16812900 -375800,1916000 -767900,3821400 -1051700,5590900 -3633500,21086000 -1824000,32994400 -13889600,31841300 -814300,-103400 -1532700,-249300 -2200400,-362700 -2452300,-527400 -4436600,-1469400 -5790200,-3734400l-1200 700c-794900,-1275300 -1576000,-3264700 -1869700,-3851600zm175249500 -210287100c-1329200,299400 -2722200,536200 -4182300,700300 -6689600,751600 -13088500,3259600 -19022700,6700200 5924200,-3430600 12315000,-5927900 18993900,-6670800 1472600,-169700 2875700,-416500 4211100,-729700zm-52910400 33922100c-1415500,1649800 -2667700,3139300 -3737500,4398300 -1738100,2043900 -6997100,8514800 -14272300,17609000 7281500,-9101700 12549800,-15577700 14290500,-17624600 1066100,-1255300 2311300,-2739700 3719300,-4382700z"/>
  <path class="fil1" d="M403233900 891495700c10984600,-9783200 15534500,-31624000 14911300,-38887300 -722900,-9376700 93283900,-126838300 101860100,-136910300 8559300,-10083200 28656200,-34931800 52418000,-37575700 15521300,-1793900 23280100,-12073800 26832200,-19060900 1248400,2018200 1832200,4539900 1473300,7492000l0 0c16900,10600 16900,10600 33200,20700 -46400,73200 -46400,73200 -46400,73200 0,0 16900,10700 16900,10700 0,0 0,0 0,0 -30000,83900 -30000,83900 -13100,93900 -418500,3120000 -962800,5852800 -1683100,8167200 -630700,2062600 -1400500,3832700 -2372000,5373000 -3916700,6244800 -10968900,8254800 -24644400,9983000 -19953500,3611000 -107601400,104577300 -136635300,149934300 -278100,439700 -509200,806800 -740300,1173200 -4720300,7480700 -7757000,13357800 -8456600,16812900 -375800,1916000 -768600,3821400 -1052300,5590900 -3633500,21086000 -1823400,32994400 -13889700,31841300 -813600,-103400 -1532000,-248700 -2200400,-363300 -2464700,-529300 -4456600,-1478900 -5811400,-3768800z"/>
  <path class="fil1" d="M165881600 338298000c3624100,-3438700 5939200,-3837700 7209400,343900 1909800,6269900 2864400,9406700 3708100,16687600 846200,7278400 27652200,52572700 44640400,76866300 16988300,24296700 25114800,30731300 35886400,54862700 10771000,24132000 31059600,41255500 29668400,54699200 0,0 230500,13419900 -4854300,18244200 -1694300,1607800 -3980600,2261800 -7060400,1141200 -12327500,-4470400 -4035100,-4252400 -12626300,-32473900 -8591200,-28220900 -26643100,-51509200 -47611900,-82128400 -20968800,-30623000 -56964200,-81340400 -55411400,-101001400 2499200,-3043500 4639500,-5522700 6451600,-7241400z"/>
  <path class="fil2" d="M306762400 539165200c0,0 -8670200,14289900 -16851100,9927300 -8178500,-4363900 -13388600,-3463200 -17151200,-18077600 -3765000,-14616200 -21843200,-76268700 -40686100,-108908600 -18844200,-32639300 -63181500,-81502000 -60946600,-87664800 2236100,-6160300 14888700,-14125800 24024200,-6626400 9134300,7500100 13688000,31466800 24570400,51454100 10878100,19987900 58546400,100044900 65170800,124067300 6627600,24024200 21869600,35828700 21869600,35828700z"/>
  <path class="fil1" d="M186130100 348201500l-40401800 -23836400c0,0 -10680800,-16514100 -5921100,-18810300 4761000,-2298800 15769400,-9420600 28849800,-8510500 13077900,908300 34998100,7030400 39074500,14543000 4078300,7510700 -12082600,32017300 -21601400,36614200z"/>
  <path class="fil2" d="M134361000 308296400c0,0 9590900,-3277800 10489700,-9127400 900700,-5852800 -454100,-36011700 -5529500,-33898300 -5075500,2109000 -8257400,5339800 -9544600,9684900 -1289000,4346900 4584400,33340800 4584400,33340800z"/>
  <path class="fil2" d="M130830800 264515300c0,0 9550200,-321900 10522900,-4853100 972800,-4533600 -482300,-30920500 2466700,-40245200 -435400,-7913500 -8029400,2072600 -11089800,13031500 -3063000,10957000 -1899800,32066800 -1899800,32066800z"/>
  <path class="fil2" d="M157438800 292978000c0,0 7947300,3839000 10005500,-6861900 2058300,-10699500 11518300,-57027400 8362000,-58889600 -3156200,-1862200 -7171900,-826800 -8400800,2703400 -1232000,3527100 -11487500,61301100 -9966700,63048100z"/>
  <path class="fil2" d="M176892400 221060000c0,0 -3755000,2039400 -6169000,-1087400 -2410300,-3124300 -364600,-32554100 3908500,-32584800 4273100,-30700 10554200,-580000 8692100,2576300 -1861600,3155600 -6431600,31095900 -6431600,31095900z"/>
  <path class="fil2" d="M173222600 184004800c0,0 9437400,1312900 9926000,-955200 484200,-2265600 2365100,-19878300 -2280000,-19216200 -4647000,663300 -7646000,20171400 -7646000,20171400z"/>
  <path class="fil2" d="M170063800 293661300c0,0 6878100,5530200 11293400,-4431500 4417100,-9959200 24072400,-52964800 21419200,-55490300 -2658300,-2524900 -6801700,-2420900 -8796100,738500 -1995600,3162500 -25005100,57138900 -23916500,59183300z"/>
  <path class="fil2" d="M205417100 227767700c0,0 -4473500,1368600 -6125800,-2451600 -1655500,-3821400 8559900,-34577200 13020200,-33706000 4462200,867600 11155600,1612900 8349500,4563700 -2809300,2952100 -15243900,31593900 -15243900,31593900z"/>
  <path class="fil2" d="M211774700 187724800c0,0 9471300,3386800 10599400,1087400 1128700,-2299400 7924700,-20566700 2904400,-20846100 -5022800,-277500 -13503800,19758700 -13503800,19758700z"/>
  <path class="fil2" d="M182812200 303013000c0,0 6001200,6469700 11817000,-2742300 5820200,-9213800 31523100,-48902200 29263800,-51787200 -2260500,-2883800 -6376400,-3384300 -8807900,-548700 -2435300,2837400 -33050800,52893400 -32272900,55078200z"/>
  <path class="fil2" d="M227375000 242962100c0,0 -4623900,703400 -5704300,-3319800 -1079900,-4018700 13498800,-32961800 17785600,-31454800 4288100,1510800 10802300,3221400 7594700,5733800 -3206400,2509800 -19676000,29040800 -19676000,29040800z"/>
  <path class="fil2" d="M239490100 204267700c0,0 8878800,4727200 10328200,2617600 1450000,-2110200 10831700,-19193700 5906000,-20201500 -4927600,-1006000 -16234200,17583900 -16234200,17583900z"/>
  <path class="fil2" d="M198812100 307432600c0,0 4228600,6543600 10719600,-590000 6491000,-7135000 35014500,-37769900 33492400,-40624200 -1525200,-2855600 -5034700,-3914200 -7591600,-1815200 -2558000,2100200 -36962400,41010000 -36620400,43029400z"/>
  <path class="fil2" d="M246910700 261942200c0,0 -4139000,-91500 -4457200,-3756300 -322600,-3663600 16847300,-26636800 20351200,-24674400 3502600,1966100 8914400,4446500 5735000,6144600 -3183800,1699300 -21629000,22286100 -21629000,22286100z"/>
  <path class="fil2" d="M263439200 230107200c0,0 7007200,5461900 8595000,3846500 1591000,-1616700 12403300,-15059700 8264300,-16683900 -4139700,-1626000 -16859300,12837400 -16859300,12837400z"/>
  <path class="fil2" d="M288808900 561851500c1644800,-2497300 3321600,-5849000 3560900,-11953500 38800,-985900 38200,-2046400 -1900,-3187000 -388400,-10294300 -3002200,-18118900 -2825500,-22586700 149000,-3824600 2343800,-5193800 9718000,-3549600 15997400,3560200 55976400,31537500 82169100,36968700 26193400,5428700 163535800,19625900 170915700,18448900 7381700,-1178800 12294900,-14187800 22200900,-4995800 0,0 9318400,1775100 8958200,10961300 -90200,2296900 -784800,5055400 -2382700,8368900 0,0 1121200,2008800 2421600,5066700 1874700,4414600 4120800,11015200 3889700,16913100 -77700,1956800 -546200,4468500 -1700000,6597500l1300 0 -107100 192900 -1300 2500 -55100 96500 -3700 5600c-1140000,1959900 -2980300,3614100 -5584700,4724100l0 0c-600,20000 -600,20000 -1900,38800 -86400,-3100 -86400,-3100 -86400,-3100 0,0 -1300,20000 -1300,20000 0,0 0,0 0,0 -87000,15700 -87000,15700 -87700,35100 -2911300,1197600 -5549600,2092700 -7913500,2626300 -2102100,485500 -4020000,704100 -5840200,632700 -7366100,-270000 -12633200,-5372400 -20967000,-16351900 -13104800,-15474400 -144367800,-40897300 -198165000,-43362000 -519900,-20700 -953300,-37600 -1386200,-54500 -8839200,-347700 -15446100,-38900 -18788400,1082300 -1847800,632700 -3693700,1245900 -5368000,1884800 -20078100,7396100 -29486100,14917500 -34520200,3891600 -317600,-756100 -550600,-1451300 -786100,-2086500 -769200,-2387700 -945800,-4576800 338900,-6881800l-1300 -700c707200,-1326000 2039500,-2996500 2400900,-3545200zm269738500 46627300c-923800,-1001600 -1825200,-2089600 -2697100,-3271500 -3995600,-5418100 -9367300,-9705600 -15314600,-13124300 5933500,3415600 11291500,7701200 15274500,13113600 883200,1190700 1798300,2282500 2737200,3282200zm-55832900 -28860400c-2135900,-401500 -4052000,-741000 -5677400,-1037900 -2638900,-482900 -10872400,-1802700 -22385600,-3555300 11523200,1755100 19765500,3079200 22408200,3563400 1620400,295700 3528900,631400 5654800,1029800z"/>
  <path class="fil1" d="M286429300 565361000c13964200,4621400 35154100,-2358800 41132800,-6529800 7758800,-5314700 156486700,17367200 169497600,19758100 13011500,2370700 44579600,7351000 58750500,26607300 9314100,12545500 22096300,14124600 29923400,13707400 -1123700,2090200 -3015300,3856500 -5751300,5021600l0 0c-1300,19400 -1300,19400 -1900,39400 -86400,-3700 -86400,-3700 -86400,-3700 0,0 -700,19400 -700,19400 0,0 0,0 0,0 -87600,16300 -87600,16300 -88300,35700 -2911300,1197600 -5549600,2092700 -7914100,2626300 -2102100,485500 -4019400,704100 -5839600,632000 -7366100,-269300 -12633200,-5371700 -20967000,-16351200 -13104800,-15474400 -144367800,-40896700 -198165000,-43362700 -519900,-20000 -953300,-36900 -1386200,-54500 -8838600,-347000 -15446800,-38800 -18788400,1083000 -1847800,632700 -3694300,1245200 -5368000,1884800 -20078100,7396100 -29486100,14917500 -34520200,3891600 -317600,-756700 -550600,-1451300 -786100,-2087100 -773600,-2399600 -947700,-4599400 358900,-6917600z"/>
  <rect class="fil3" width="1254544400" height="1254544400"/>
 </g>
</svg>
